<svg width="121" height="39" viewBox="0 0 121 39" fill="none" xmlns="http://www.w3.org/2000/svg">
<g filter="url(#filter0_d_100_3)">
<path d="M57.0442 3.22V30.34H59.5342V3.22H57.0442ZM52.3342 13V15.16H58.2142V13H52.3342ZM40.6042 5.62V11.71C40.6042 15.19 39.7042 19.93 36.4042 22.36L38.0542 24.13C41.4442 21.49 42.4642 16.03 42.4642 11.71V5.62H40.6042ZM41.1442 5.62V11.71C41.1442 15.76 41.8942 21.7 45.5542 24.43L46.9342 22.54C43.6042 19.96 42.9442 14.95 42.9442 11.71V5.62H41.1442ZM48.1342 5.62V11.71C48.1342 15.16 47.4742 20.02 44.1742 22.54L45.5542 24.43C49.1842 21.76 49.9642 15.94 49.9642 11.71V5.62H48.1342ZM48.6742 5.62V11.71C48.6742 16.15 49.6342 21.58 53.1442 24.19L54.7042 22.36C51.3742 19.96 50.5342 15.31 50.5342 11.71V5.62H48.6742ZM84.6419 3.22V30.34H87.1319V3.22H84.6419ZM79.9319 13V15.16H85.8119V13H79.9319ZM68.2019 5.62V11.71C68.2019 15.19 67.3019 19.93 64.0019 22.36L65.6519 24.13C69.0419 21.49 70.0619 16.03 70.0619 11.71V5.62H68.2019ZM68.7419 5.62V11.71C68.7419 15.76 69.4919 21.7 73.1519 24.43L74.5319 22.54C71.2019 19.96 70.5419 14.95 70.5419 11.71V5.62H68.7419ZM75.7319 5.62V11.71C75.7319 15.16 75.0719 20.02 71.7719 22.54L73.1519 24.43C76.7819 21.76 77.5619 15.94 77.5619 11.71V5.62H75.7319ZM76.2719 5.62V11.71C76.2719 16.15 77.2319 21.58 80.7419 24.19L82.3019 22.36C78.9719 19.96 78.1319 15.31 78.1319 11.71V5.62H76.2719ZM98.2895 19.99V30.34H100.84V19.99H98.2895ZM107.62 19.99V30.34H110.17V19.99H107.62ZM91.9895 18.64V20.71H116.59V18.64H91.9895ZM104.23 4.3C98.5895 4.3 94.7495 6.58 94.7495 10.21C94.7495 13.81 98.5895 16.12 104.23 16.12C109.9 16.12 113.71 13.81 113.71 10.21C113.71 6.58 109.9 4.3 104.23 4.3ZM104.23 6.31C108.37 6.31 111.16 7.84 111.16 10.21C111.16 12.58 108.37 14.11 104.23 14.11C100.09 14.11 97.2695 12.58 97.2695 10.21C97.2695 7.84 100.09 6.31 104.23 6.31Z" fill="#3352E6"/>
<path d="M57.0442 3.22V2.22H56.0442V3.22H57.0442ZM57.0442 30.34H56.0442V31.34H57.0442V30.34ZM59.5342 30.34V31.34H60.5342V30.34H59.5342ZM59.5342 3.22H60.5342V2.22H59.5342V3.22ZM52.3342 13V12H51.3342V13H52.3342ZM52.3342 15.16H51.3342V16.16H52.3342V15.16ZM58.2142 15.16V16.16H59.2142V15.16H58.2142ZM58.2142 13H59.2142V12H58.2142V13ZM40.6042 5.62V4.62H39.6042V5.62H40.6042ZM36.4042 22.36L35.8113 21.5548L34.9071 22.2206L35.6728 23.0419L36.4042 22.36ZM38.0542 24.13L37.3228 24.8119L37.9467 25.4812L38.6686 24.919L38.0542 24.13ZM42.4642 5.62H43.4642V4.62H42.4642V5.62ZM41.1442 5.62V4.62H40.1442V5.62H41.1442ZM45.5542 24.43L44.9563 25.2316L45.7661 25.8356L46.3618 25.0197L45.5542 24.43ZM46.9342 22.54L47.7418 23.1297L48.315 22.3448L47.5467 21.7495L46.9342 22.54ZM42.9442 5.62H43.9442V4.62H42.9442V5.62ZM48.1342 5.62V4.62H47.1342V5.62H48.1342ZM44.1742 22.54L43.5673 21.7452L42.7894 22.3392L43.3666 23.1297L44.1742 22.54ZM45.5542 24.43L44.7466 25.0197L45.3384 25.8302L46.1467 25.2356L45.5542 24.43ZM49.9642 5.62H50.9642V4.62H49.9642V5.62ZM48.6742 5.62V4.62H47.6742V5.62H48.6742ZM53.1442 24.19L52.5475 24.9925L53.2983 25.5507L53.9052 24.8387L53.1442 24.19ZM54.7042 22.36L55.4652 23.0087L56.1691 22.1831L55.2889 21.5487L54.7042 22.36ZM50.5342 5.62H51.5342V4.62H50.5342V5.62ZM56.0442 3.22V30.34H58.0442V3.22H56.0442ZM57.0442 31.34H59.5342V29.34H57.0442V31.34ZM60.5342 30.34V3.22H58.5342V30.34H60.5342ZM59.5342 2.22H57.0442V4.22H59.5342V2.22ZM51.3342 13V15.16H53.3342V13H51.3342ZM52.3342 16.16H58.2142V14.16H52.3342V16.16ZM59.2142 15.16V13H57.2142V15.16H59.2142ZM58.2142 12H52.3342V14H58.2142V12ZM39.6042 5.62V11.71H41.6042V5.62H39.6042ZM39.6042 11.71C39.6042 13.3733 39.388 15.3171 38.7925 17.1142C38.1964 18.9129 37.2428 20.5006 35.8113 21.5548L36.9972 23.1652C38.8656 21.7894 40.012 19.7921 40.691 17.7433C41.3704 15.6929 41.6042 13.5267 41.6042 11.71H39.6042ZM35.6728 23.0419L37.3228 24.8119L38.7857 23.4481L37.1357 21.6781L35.6728 23.0419ZM38.6686 24.919C40.5864 23.4255 41.7753 21.1851 42.4873 18.8406C43.202 16.4872 43.4642 13.9396 43.4642 11.71H41.4642C41.4642 13.8004 41.2164 16.1428 40.5736 18.2594C39.9281 20.3849 38.912 22.1945 37.4398 23.341L38.6686 24.919ZM43.4642 11.71V5.62H41.4642V11.71H43.4642ZM42.4642 4.62H40.6042V6.62H42.4642V4.62ZM40.1442 5.62V11.71H42.1442V5.62H40.1442ZM40.1442 11.71C40.1442 13.7863 40.3354 16.3815 41.0129 18.8315C41.6871 21.2696 42.8753 23.6794 44.9563 25.2316L46.1521 23.6284C44.5731 22.4506 43.5564 20.5254 42.9405 18.2985C42.3281 16.0835 42.1442 13.6837 42.1442 11.71H40.1442ZM46.3618 25.0197L47.7418 23.1297L46.1266 21.9503L44.7466 23.8403L46.3618 25.0197ZM47.5467 21.7495C46.1064 20.6336 45.1969 18.9538 44.65 17.0908C44.1044 15.2322 43.9442 13.2718 43.9442 11.71H41.9442C41.9442 13.3882 42.1141 15.5528 42.731 17.6542C43.3466 19.7512 44.432 21.8664 46.3218 23.3305L47.5467 21.7495ZM43.9442 11.71V5.62H41.9442V11.71H43.9442ZM42.9442 4.62H41.1442V6.62H42.9442V4.62ZM47.1342 5.62V11.71H49.1342V5.62H47.1342ZM47.1342 11.71C47.1342 13.3807 46.9733 15.3544 46.4324 17.1913C45.8911 19.0299 44.9917 20.6575 43.5673 21.7452L44.7811 23.3348C46.6568 21.9025 47.7374 19.8401 48.351 17.7562C48.9651 15.6706 49.1342 13.4893 49.1342 11.71H47.1342ZM43.3666 23.1297L44.7466 25.0197L46.3618 23.8403L44.9818 21.9503L43.3666 23.1297ZM46.1467 25.2356C48.2138 23.7152 49.4042 21.351 50.0834 18.9246C50.7656 16.4877 50.9642 13.8761 50.9642 11.71H48.9642C48.9642 13.7739 48.7728 16.1873 48.1575 18.3854C47.5392 20.594 46.5247 22.4748 44.9617 23.6244L46.1467 25.2356ZM50.9642 11.71V5.62H48.9642V11.71H50.9642ZM49.9642 4.62H48.1342V6.62H49.9642V4.62ZM47.6742 5.62V11.71H49.6742V5.62H47.6742ZM47.6742 11.71C47.6742 13.9926 47.9199 16.5646 48.636 18.9264C49.3503 21.2824 50.5594 23.5141 52.5475 24.9925L53.7409 23.3875C52.2191 22.2559 51.1932 20.4676 50.55 18.3461C49.9085 16.2304 49.6742 13.8674 49.6742 11.71H47.6742ZM53.9052 24.8387L55.4652 23.0087L53.9432 21.7113L52.3832 23.5413L53.9052 24.8387ZM55.2889 21.5487C52.3802 19.4524 51.5342 15.2582 51.5342 11.71H49.5342C49.5342 15.3618 50.3682 20.4676 54.1195 23.1713L55.2889 21.5487ZM51.5342 11.71V5.62H49.5342V11.71H51.5342ZM50.5342 4.62H48.6742V6.62H50.5342V4.62ZM84.6419 3.22V2.22H83.6419V3.22H84.6419ZM84.6419 30.34H83.6419V31.34H84.6419V30.34ZM87.1319 30.34V31.34H88.1319V30.34H87.1319ZM87.1319 3.22H88.1319V2.22H87.1319V3.22ZM79.9319 13V12H78.9319V13H79.9319ZM79.9319 15.16H78.9319V16.16H79.9319V15.16ZM85.8119 15.16V16.16H86.8119V15.16H85.8119ZM85.8119 13H86.8119V12H85.8119V13ZM68.2019 5.62V4.62H67.2019V5.62H68.2019ZM64.0019 22.36L63.4089 21.5548L62.5048 22.2206L63.2704 23.0419L64.0019 22.36ZM65.6519 24.13L64.9204 24.8119L65.5444 25.4812L66.2663 24.919L65.6519 24.13ZM70.0619 5.62H71.0619V4.62H70.0619V5.62ZM68.7419 5.62V4.62H67.7419V5.62H68.7419ZM73.1519 24.43L72.554 25.2316L73.3638 25.8356L73.9595 25.0197L73.1519 24.43ZM74.5319 22.54L75.3395 23.1297L75.9126 22.3448L75.1443 21.7495L74.5319 22.54ZM70.5419 5.62H71.5419V4.62H70.5419V5.62ZM75.7319 5.62V4.62H74.7319V5.62H75.7319ZM71.7719 22.54L71.165 21.7452L70.3871 22.3392L70.9642 23.1297L71.7719 22.54ZM73.1519 24.43L72.3442 25.0197L72.936 25.8302L73.7444 25.2356L73.1519 24.43ZM77.5619 5.62H78.5619V4.62H77.5619V5.62ZM76.2719 5.62V4.62H75.2719V5.62H76.2719ZM80.7419 24.19L80.1452 24.9925L80.8959 25.5507L81.5029 24.8387L80.7419 24.19ZM82.3019 22.36L83.0629 23.0087L83.7667 22.1831L82.8866 21.5487L82.3019 22.36ZM78.1319 5.62H79.1319V4.62H78.1319V5.62ZM83.6419 3.22V30.34H85.6419V3.22H83.6419ZM84.6419 31.34H87.1319V29.34H84.6419V31.34ZM88.1319 30.34V3.22H86.1319V30.34H88.1319ZM87.1319 2.22H84.6419V4.22H87.1319V2.22ZM78.9319 13V15.16H80.9319V13H78.9319ZM79.9319 16.16H85.8119V14.16H79.9319V16.16ZM86.8119 15.16V13H84.8119V15.16H86.8119ZM85.8119 12H79.9319V14H85.8119V12ZM67.2019 5.62V11.71H69.2019V5.62H67.2019ZM67.2019 11.71C67.2019 13.3733 66.9857 15.3171 66.3901 17.1142C65.7941 18.9129 64.8405 20.5006 63.4089 21.5548L64.5948 23.1652C66.4633 21.7894 67.6097 19.7921 68.2886 17.7433C68.9681 15.6929 69.2019 13.5267 69.2019 11.71H67.2019ZM63.2704 23.0419L64.9204 24.8119L66.3833 23.4481L64.7333 21.6781L63.2704 23.0419ZM66.2663 24.919C68.1841 23.4255 69.373 21.1851 70.085 18.8406C70.7997 16.4872 71.0619 13.9396 71.0619 11.71H69.0619C69.0619 13.8004 68.8141 16.1428 68.1713 18.2594C67.5258 20.3849 66.5097 22.1945 65.0375 23.341L66.2663 24.919ZM71.0619 11.71V5.62H69.0619V11.71H71.0619ZM70.0619 4.62H68.2019V6.62H70.0619V4.62ZM67.7419 5.62V11.71H69.7419V5.62H67.7419ZM67.7419 11.71C67.7419 13.7863 67.933 16.3815 68.6105 18.8315C69.2847 21.2696 70.473 23.6794 72.554 25.2316L73.7498 23.6284C72.1708 22.4506 71.154 20.5254 70.5382 18.2985C69.9257 16.0835 69.7419 13.6837 69.7419 11.71H67.7419ZM73.9595 25.0197L75.3395 23.1297L73.7242 21.9503L72.3442 23.8403L73.9595 25.0197ZM75.1443 21.7495C73.7041 20.6336 72.7945 18.9538 72.2476 17.0908C71.702 15.2322 71.5419 13.2718 71.5419 11.71H69.5419C69.5419 13.3882 69.7117 15.5528 70.3286 17.6542C70.9442 19.7512 72.0297 21.8664 73.9194 23.3305L75.1443 21.7495ZM71.5419 11.71V5.62H69.5419V11.71H71.5419ZM70.5419 4.62H68.7419V6.62H70.5419V4.62ZM74.7319 5.62V11.71H76.7319V5.62H74.7319ZM74.7319 11.71C74.7319 13.3807 74.571 15.3544 74.0301 17.1913C73.4887 19.0299 72.5893 20.6575 71.165 21.7452L72.3788 23.3348C74.2544 21.9025 75.335 19.8401 75.9487 17.7562C76.5628 15.6706 76.7319 13.4893 76.7319 11.71H74.7319ZM70.9642 23.1297L72.3442 25.0197L73.9595 23.8403L72.5795 21.9503L70.9642 23.1297ZM73.7444 25.2356C75.8114 23.7152 77.0019 21.351 77.6811 18.9246C78.3633 16.4877 78.5619 13.8761 78.5619 11.71H76.5619C76.5619 13.7739 76.3705 16.1873 75.7551 18.3854C75.1369 20.594 74.1223 22.4748 72.5594 23.6244L73.7444 25.2356ZM78.5619 11.71V5.62H76.5619V11.71H78.5619ZM77.5619 4.62H75.7319V6.62H77.5619V4.62ZM75.2719 5.62V11.71H77.2719V5.62H75.2719ZM75.2719 11.71C75.2719 13.9926 75.5176 16.5646 76.2336 18.9264C76.9479 21.2824 78.157 23.5141 80.1452 24.9925L81.3386 23.3875C79.8167 22.2559 78.7908 20.4676 78.1476 18.3461C77.5062 16.2304 77.2719 13.8674 77.2719 11.71H75.2719ZM81.5029 24.8387L83.0629 23.0087L81.5409 21.7113L79.9809 23.5413L81.5029 24.8387ZM82.8866 21.5487C79.9779 19.4524 79.1319 15.2582 79.1319 11.71H77.1319C77.1319 15.3618 77.9658 20.4676 81.7172 23.1713L82.8866 21.5487ZM79.1319 11.71V5.62H77.1319V11.71H79.1319ZM78.1319 4.62H76.2719V6.62H78.1319V4.62ZM98.2895 19.99V18.99H97.2895V19.99H98.2895ZM98.2895 30.34H97.2895V31.34H98.2895V30.34ZM100.84 30.34V31.34H101.84V30.34H100.84ZM100.84 19.99H101.84V18.99H100.84V19.99ZM107.62 19.99V18.99H106.62V19.99H107.62ZM107.62 30.34H106.62V31.34H107.62V30.34ZM110.17 30.34V31.34H111.17V30.34H110.17ZM110.17 19.99H111.17V18.99H110.17V19.99ZM91.9895 18.64V17.64H90.9895V18.64H91.9895ZM91.9895 20.71H90.9895V21.71H91.9895V20.71ZM116.59 20.71V21.71H117.59V20.71H116.59ZM116.59 18.64H117.59V17.64H116.59V18.64ZM97.2895 19.99V30.34H99.2895V19.99H97.2895ZM98.2895 31.34H100.84V29.34H98.2895V31.34ZM101.84 30.34V19.99H99.8395V30.34H101.84ZM100.84 18.99H98.2895V20.99H100.84V18.99ZM106.62 19.99V30.34H108.62V19.99H106.62ZM107.62 31.34H110.17V29.34H107.62V31.34ZM111.17 30.34V19.99H109.17V30.34H111.17ZM110.17 18.99H107.62V20.99H110.17V18.99ZM90.9895 18.64V20.71H92.9895V18.64H90.9895ZM91.9895 21.71H116.59V19.71H91.9895V21.71ZM117.59 20.71V18.64H115.59V20.71H117.59ZM116.59 17.64H91.9895V19.64H116.59V17.64ZM104.23 3.3C101.292 3.3 98.7224 3.89108 96.8508 5.04189C94.9498 6.21072 93.7495 7.98257 93.7495 10.21H95.7495C95.7495 8.80743 96.4693 7.62428 97.8983 6.7456C99.3567 5.84892 101.527 5.3 104.23 5.3V3.3ZM93.7495 10.21C93.7495 12.4242 94.9515 14.1948 96.8494 15.366C98.7202 16.5205 101.29 17.12 104.23 17.12V15.12C101.529 15.12 99.3589 14.5645 97.8997 13.664C96.4676 12.7802 95.7495 11.5958 95.7495 10.21H93.7495ZM104.23 17.12C107.183 17.12 109.754 16.5209 111.622 15.3655C113.518 14.1926 114.71 12.4212 114.71 10.21H112.71C112.71 11.5988 111.996 12.7824 110.57 13.6645C109.115 14.5641 106.946 15.12 104.23 15.12V17.12ZM114.71 10.21C114.71 7.98554 113.52 6.2129 111.62 5.04242C109.752 3.89074 107.181 3.3 104.23 3.3V5.3C106.948 5.3 109.117 5.84926 110.571 6.74508C111.994 7.6221 112.71 8.80446 112.71 10.21H114.71ZM104.23 7.31C106.195 7.31 107.742 7.67585 108.759 8.24426C109.757 8.80175 110.16 9.4883 110.16 10.21H112.16C112.16 8.5617 111.167 7.29825 109.735 6.49824C108.322 5.70915 106.405 5.31 104.23 5.31V7.31ZM110.16 10.21C110.16 10.9317 109.757 11.6182 108.759 12.1757C107.742 12.7442 106.195 13.11 104.23 13.11V15.11C106.405 15.11 108.322 14.7108 109.735 13.9218C111.167 13.1218 112.16 11.8583 112.16 10.21H110.16ZM104.23 13.11C102.265 13.11 100.709 12.7442 99.6824 12.1745C98.674 11.6146 98.2695 10.927 98.2695 10.21H96.2695C96.2695 11.863 97.2751 13.1254 98.7116 13.923C100.13 14.7108 102.054 15.11 104.23 15.11V13.11ZM98.2695 10.21C98.2695 9.49299 98.674 8.80544 99.6824 8.24553C100.709 7.6758 102.265 7.31 104.23 7.31V5.31C102.054 5.31 100.13 5.7092 98.7116 6.49696C97.2751 7.29456 96.2695 8.557 96.2695 10.21H98.2695Z" fill="#857C6F"/>
</g>
<path d="M11.3747 2.05099C10.3281 2.20908 9.49917 2.55944 8.68701 3.18325C8.40653 3.39689 8.28512 3.45671 7.83299 3.60625C6.38032 4.08052 5.25837 4.72997 4.05269 5.79814C1.993 7.61404 0.699408 10.2247 0.217975 13.536C-0.0499527 15.3818 -0.0708846 17.7019 0.15518 19.9792C0.301703 21.3935 0.678477 23.7819 0.896168 24.6151C1.12642 25.5124 1.54506 26.2387 2.22744 26.9437C3.24472 27.9948 4.50064 28.6143 6.02866 28.8237C6.39288 28.875 7.30551 28.8621 7.71159 28.7981C7.84555 28.7767 7.88323 28.7981 8.21395 29.1014C10.2402 30.9558 12.7897 32.1649 15.4354 32.5238C16.1011 32.6136 17.5705 32.6264 18.2403 32.5495C21.9997 32.1094 25.3739 29.9303 27.5718 26.525C28.7732 24.6621 29.5645 22.5343 29.9036 20.2356C29.9831 19.71 29.9957 19.428 29.9998 18.3556C30.004 16.7277 29.9203 14.4717 29.8408 13.9547C29.531 11.9465 28.7942 10.3315 27.5257 8.89585C26.9019 8.19085 25.6209 7.17395 24.9888 6.88768C24.8715 6.83641 24.6204 6.65695 24.4362 6.49886C21.9411 4.32406 18.6255 2.77735 15.2638 2.22617C14.0288 2.02535 12.1198 1.93563 11.3747 2.05099ZM9.13495 9.84011C9.13495 9.86147 9.17263 10.1221 9.21868 10.4255C9.26473 10.7288 9.30241 10.9809 9.30241 10.9852C9.30241 10.9937 9.43219 11.0365 9.59127 11.0877C9.82989 11.1604 9.92618 11.2245 10.1732 11.4552C10.4913 11.7585 10.8095 12.1986 10.8095 12.3439C10.8095 12.3909 10.7886 12.4977 10.7593 12.5746C10.7174 12.69 10.6881 12.7156 10.5918 12.7156C10.4955 12.7156 10.3992 12.643 10.1481 12.3781C9.8592 12.079 9.49917 11.7756 9.43219 11.7756C9.39032 11.7756 9.41544 13.1984 9.46568 13.4206C9.50754 13.6086 9.63732 14.3008 9.63732 14.3264C9.63732 14.335 9.80059 14.4461 10.0057 14.5785C10.642 14.9973 11.09 15.5655 11.2826 16.1979C11.3621 16.4542 11.4793 17.1464 11.4793 17.343C11.4751 17.5865 11.3286 18.0351 11.1737 18.2744C10.9518 18.6162 10.5583 18.8811 10.1815 18.9495C10.0141 18.9837 10.0183 18.9623 10.102 19.5776C10.1522 19.9408 10.1481 19.992 10.0685 20.2612C10.0015 20.4919 9.96386 20.5603 9.89687 20.5688C9.74617 20.5945 9.46149 20.4877 9.3359 20.3638C9.23543 20.2569 9.21868 20.2099 9.21868 19.992C9.21868 19.8553 9.23543 19.7186 9.25636 19.6844C9.28148 19.6417 9.2731 19.5776 9.23124 19.4964C9.19775 19.428 9.17682 19.3255 9.18938 19.2699C9.20194 19.1845 9.17682 19.1631 8.95075 19.0777C8.43164 18.8897 8.09673 18.6803 7.94602 18.4581C7.69065 18.0779 7.38924 17.5908 7.32225 17.4455C7.22597 17.2233 7.23015 16.9029 7.339 16.6892C7.42691 16.5183 7.42691 16.5183 7.67391 16.5183H7.91672L8.00882 16.826C8.12185 17.2233 8.38141 17.7745 8.54468 17.9796C8.68283 18.1462 9.01774 18.3342 9.10984 18.3C9.1517 18.283 9.1517 18.2018 9.10984 17.86C9.07635 17.5993 9.07216 17.4113 9.09728 17.3686C9.1224 17.3216 9.11402 17.2447 9.07635 17.1507C8.98425 16.9242 8.90889 16.3944 8.95913 16.3346C9.01774 16.2662 8.95075 15.6937 8.83772 15.3134C8.74144 14.9716 8.57398 14.7665 8.38978 14.7665C8.12604 14.7665 7.8623 14.5913 7.61111 14.2495C7.34319 13.8864 7.2469 13.5445 7.26364 13.0233C7.2762 12.6387 7.28876 12.5832 7.44366 12.2414C7.64042 11.8226 8.07161 11.3185 8.34373 11.1903L8.50281 11.1134L8.507 10.528C8.507 10.1691 8.52374 9.93411 8.55305 9.91702C8.59491 9.88711 8.91726 9.82729 9.06379 9.81447C9.10146 9.81447 9.13495 9.82302 9.13495 9.84011ZM20.4717 9.93838C20.48 10.0324 20.5679 10.5579 20.6307 10.8869C20.6517 10.9895 20.6893 11.0151 20.8903 11.0749C21.2378 11.1775 21.5643 11.4338 21.8699 11.8525C22.1169 12.1944 22.1671 12.3354 22.1043 12.5447C22.0583 12.6943 22.0332 12.7156 21.9243 12.7156C21.8197 12.7156 21.7359 12.6515 21.4638 12.3695C21.1373 12.032 20.8233 11.7756 20.7354 11.7756C20.7061 11.7756 20.7061 11.8141 20.7354 11.891C20.7647 11.9679 20.7731 12.1687 20.7521 12.4379C20.727 12.8524 20.7982 13.5873 20.8987 13.9334C20.9154 14.0017 20.9447 14.1299 20.9573 14.2111C20.9782 14.3435 21.0201 14.382 21.3047 14.5529C22.1923 15.0827 22.703 15.9586 22.7658 17.061C22.8077 17.7745 22.6779 18.1761 22.2885 18.535C22.0834 18.7273 21.6564 18.9538 21.5057 18.9538C21.4471 18.9538 21.3885 18.9837 21.3759 19.0179C21.3592 19.0563 21.3801 19.2571 21.422 19.4665C21.4973 19.8596 21.4931 19.9749 21.3885 20.3424C21.3466 20.5005 21.3089 20.5603 21.242 20.5688C21.0996 20.5902 20.8275 20.4962 20.6893 20.3766C20.5596 20.2655 20.5596 20.2655 20.5679 19.8767C20.5721 19.663 20.5554 19.428 20.5303 19.3511C20.501 19.2529 20.501 19.2101 20.5345 19.1973C20.5596 19.1888 20.4298 19.1289 20.2456 19.0649C19.8898 18.9367 19.5967 18.7786 19.4418 18.6376C19.3874 18.5863 19.2199 18.3684 19.0692 18.1505C18.6003 17.4626 18.458 17.014 18.6338 16.7747C18.6799 16.7063 18.7218 16.6209 18.7218 16.5824C18.7218 16.5311 18.7762 16.5183 18.9897 16.5183H19.2534L19.3497 16.8473C19.5465 17.5352 19.8688 18.0608 20.1912 18.2274C20.4591 18.3684 20.4968 18.3513 20.4591 18.0864C20.4424 17.9668 20.4214 17.7019 20.413 17.5011C20.4047 17.3002 20.3628 16.9755 20.3168 16.7747C20.2665 16.5525 20.2498 16.3944 20.2749 16.3688C20.3754 16.2662 20.2372 15.369 20.0698 15.04C19.9777 14.8605 19.8772 14.7964 19.5967 14.7494C19.2199 14.6853 18.7887 14.1683 18.638 13.6044C18.571 13.3565 18.5585 13.2326 18.5878 13.1685C18.6087 13.1173 18.6129 13.0404 18.5962 12.9934C18.5082 12.7327 18.8515 11.9508 19.2409 11.5449C19.379 11.3996 19.5758 11.2416 19.6721 11.1946L19.8479 11.1134L19.8521 10.5067V9.89993L19.9902 9.87856C20.2958 9.82729 20.3377 9.82302 20.3963 9.82729C20.4298 9.83156 20.4633 9.87856 20.4717 9.93838ZM13.0157 22.8077C13.1916 23.0086 13.1957 23.0342 13.1371 23.611C13.0701 24.2434 13.3841 26.1105 13.6227 26.5079C13.7609 26.7386 13.8404 26.7557 14.0791 26.6019C14.6903 26.2003 15.0294 25.4055 15.1298 24.1451C15.1717 23.611 15.1759 23.5854 15.3015 23.4486C15.4187 23.3247 15.4564 23.3119 15.6657 23.3119C15.8583 23.3119 15.9169 23.329 15.9881 23.4059C16.1346 23.5725 16.1513 23.6409 16.1178 24.0041C16.0174 25.2432 16.1513 25.9482 16.5658 26.3712C16.7332 26.5421 16.8253 26.6019 17.0305 26.6574C17.1686 26.6959 17.3402 26.7301 17.4156 26.7301C17.6082 26.7301 17.851 26.995 17.8342 27.1915C17.8217 27.324 17.8049 27.3411 17.5286 27.4393C17.1351 27.5846 17.0221 27.6017 16.6997 27.5504C16.1974 27.4692 15.7578 27.1872 15.4941 26.7728C15.4187 26.6532 15.3475 26.5592 15.335 26.5592C15.3224 26.5634 15.2596 26.6446 15.1968 26.7429C14.9959 27.0633 14.6275 27.4436 14.4014 27.559C14.2214 27.653 14.1251 27.6701 13.8363 27.6701C13.4218 27.6701 13.3171 27.6231 13.0701 27.3411C12.798 27.0249 12.6473 26.6959 12.4631 26.0464C12.2245 25.1876 12.1282 23.8631 12.2538 23.2521C12.3543 22.7565 12.392 22.7137 12.685 22.7137C12.8859 22.7137 12.9446 22.7308 13.0157 22.8077Z" fill="#3B82F6"/>
<path d="M8.36461 12.1815C8.11343 12.4549 8.03807 12.6173 8.01295 12.9249C7.98783 13.3223 8.059 13.6128 8.23483 13.7966C8.4609 14.0316 8.82511 14.117 8.71626 13.9119C8.67859 13.8393 8.60323 13.3992 8.5195 12.7498C8.50695 12.6387 8.51113 12.5148 8.52788 12.472C8.54881 12.4293 8.55718 12.3738 8.54881 12.3524C8.54462 12.3268 8.52369 12.2499 8.51113 12.1815L8.48183 12.0533L8.36461 12.1815Z" fill="#3B82F6"/>
<path d="M9.73346 15.5014C9.81719 15.9842 9.9344 16.967 9.9679 17.4498C9.98883 17.7617 10.0139 18.0266 10.0265 18.0394C10.0767 18.0907 10.2777 17.9924 10.4117 17.8471C10.5582 17.6933 10.5624 17.689 10.5331 17.4241C10.5163 17.2404 10.5205 17.1379 10.5582 17.0951C10.6963 16.9242 10.3865 16.0911 10.0223 15.6467C9.77114 15.3519 9.70415 15.3134 9.73346 15.5014Z" fill="#3B82F6"/>
<path d="M19.6971 12.1687C19.6511 12.2243 19.559 12.3524 19.492 12.455C19.379 12.6344 19.3706 12.6729 19.3706 13.0788C19.3706 13.4804 19.379 13.5232 19.4878 13.6941C19.6134 13.8863 19.9483 14.0914 20.0153 14.0145C20.0362 13.9932 20.0195 13.818 19.9734 13.5915C19.9065 13.2711 19.8646 12.7883 19.8562 12.1901C19.852 12.0491 19.8102 12.0448 19.6971 12.1687Z" fill="#3B82F6"/>
<path d="M21.0411 15.4373C21.0494 15.4801 21.0704 15.5527 21.0829 15.5997C21.129 15.7834 21.2839 17.1208 21.3132 17.5651L21.3383 18.0351L21.4639 18.0223C21.602 18.0052 21.9035 17.7403 21.9035 17.6335C21.9035 17.5993 21.8825 17.5053 21.8532 17.4284C21.8114 17.3088 21.8114 17.2618 21.8742 17.1464C22.0332 16.8473 21.7402 16.074 21.2713 15.557C21.0913 15.3561 21.0034 15.3134 21.0411 15.4373Z" fill="#3B82F6"/>
<defs>
<filter id="filter0_d_100_3" x="32.4043" y="3.22" width="88.1853" height="35.12" filterUnits="userSpaceOnUse" color-interpolation-filters="sRGB">
<feFlood flood-opacity="0" result="BackgroundImageFix"/>
<feColorMatrix in="SourceAlpha" type="matrix" values="0 0 0 0 0 0 0 0 0 0 0 0 0 0 0 0 0 0 127 0" result="hardAlpha"/>
<feOffset dy="4"/>
<feGaussianBlur stdDeviation="2"/>
<feComposite in2="hardAlpha" operator="out"/>
<feColorMatrix type="matrix" values="0 0 0 0 0 0 0 0 0 0 0 0 0 0 0 0 0 0 0.25 0"/>
<feBlend mode="normal" in2="BackgroundImageFix" result="effect1_dropShadow_100_3"/>
<feBlend mode="normal" in="SourceGraphic" in2="effect1_dropShadow_100_3" result="shape"/>
</filter>
</defs>
</svg>
