<svg width="254" height="38" viewBox="0 0 254 38" fill="none" xmlns="http://www.w3.org/2000/svg">
<g filter="url(#filter0_d_52_4)">
<path d="M16.1245 15.032V20.088H18.7805V15.032H16.1245ZM4.3805 14.104V16.248H30.5245V14.104H4.3805ZM17.4365 19.288C11.2285 19.288 7.5165 21.112 7.5165 24.376C7.5165 27.608 11.2285 29.432 17.4365 29.432C23.6445 29.432 27.3565 27.608 27.3565 24.376C27.3565 21.112 23.6445 19.288 17.4365 19.288ZM17.4365 21.336C21.9805 21.336 24.6685 22.424 24.6685 24.376C24.6685 26.296 21.9805 27.384 17.4365 27.384C12.9245 27.384 10.2045 26.296 10.2045 24.376C10.2045 22.424 12.9245 21.336 17.4365 21.336ZM15.7405 2.936V3.8C15.7405 7.096 11.0365 9.688 5.8525 10.232L6.8125 12.344C12.7965 11.608 18.1085 8.472 18.1085 3.8V2.936H15.7405ZM16.8605 2.936V3.8C16.8605 8.472 22.1405 11.608 28.1245 12.344L29.0845 10.232C23.9005 9.688 19.1965 7.096 19.1965 3.8V2.936H16.8605ZM6.7805 1.88V4.024H28.1885V1.88H6.7805ZM36.602 3.448V5.656H55.226V3.448H36.602ZM33.85 23.256V25.464H59.994V23.256H33.85ZM43.994 12.92V24.344H46.65V12.92H43.994ZM54.234 3.448V6.328C54.234 9.784 54.234 13.848 53.146 19.384L55.802 19.736C56.858 13.88 56.858 9.912 56.858 6.328V3.448H54.234ZM84.4075 0.567999V29.496H87.0635V0.567999H84.4075ZM77.6555 12.152V14.36H85.5915V12.152H77.6555ZM75.1275 3.672V4.12C75.1275 11.672 71.6715 17.816 63.2555 21.944L64.7275 24.024C74.3275 19.224 77.7515 11.928 77.7515 3.672H75.1275ZM64.5035 3.672V5.848H76.5355V3.672H64.5035ZM93.653 20.376V22.584H95.573C99.157 22.584 102.421 22.488 106.421 21.784L106.197 19.576C102.293 20.248 99.093 20.376 95.573 20.376H93.653ZM93.589 3.704V5.88H101.845V11.704H93.653V21.208H96.245V13.88H104.437V3.704H93.589ZM114.709 0.567999V29.496H117.269V0.567999H114.709ZM109.813 11.992V14.168H115.381V11.992H109.813ZM108.149 1.208V28.024H110.645V1.208H108.149ZM137.716 3.064V8.248C137.716 13.72 134.228 19.256 129.94 21.304L131.572 23.48C136.308 21.08 139.892 14.904 139.892 8.248V3.064H137.716ZM138.164 3.064V8.248C138.164 14.68 141.78 20.632 146.484 22.936L148.084 20.824C143.796 18.84 140.34 13.528 140.34 8.248V3.064H138.164ZM151.092 0.535999V29.528H153.748V0.535999H151.092ZM170.93 10.904V13.112H176.466V10.904H170.93ZM165.522 3.288V8.792C165.522 13.752 163.154 18.936 159.186 21.272L160.85 23.288C165.074 20.696 167.602 14.84 167.602 8.792V3.288H165.522ZM166.034 3.288V8.696C166.034 14.328 168.37 20.088 172.53 22.648L174.066 20.568C170.258 18.264 168.082 13.336 168.082 8.696V3.288H166.034ZM181.554 0.567999V29.496H184.114V0.567999H181.554ZM175.698 1.176V28.056H178.194V1.176H175.698ZM196.913 23.576V25.784H223.121V23.576H196.913ZM208.689 16.568V24.312H211.312V16.568H208.689ZM208.625 4.216V6.008C208.625 10.584 203.153 14.648 198.161 15.48L199.249 17.592C204.945 16.408 210.865 11.928 210.865 6.008V4.216H208.625ZM209.105 4.216V6.008C209.105 11.928 215.057 16.344 220.849 17.496L221.905 15.384C216.849 14.552 211.345 10.584 211.345 6.008V4.216H209.105ZM199.057 3.192V5.368H220.913V3.192H199.057ZM234.574 17.912V22.68H237.262V17.912H234.574ZM247.246 0.567999V29.496H249.902V0.567999H247.246ZM226.862 23.992C232.206 23.992 239.182 23.928 245.614 22.84L245.422 20.888C239.182 21.688 231.982 21.752 226.51 21.784L226.862 23.992ZM227.118 4.088V6.232H244.686V4.088H227.118ZM235.886 7.896C231.758 7.896 228.942 10.008 228.942 13.24C228.942 16.504 231.758 18.584 235.886 18.584C240.046 18.584 242.862 16.504 242.862 13.24C242.862 10.008 240.046 7.896 235.886 7.896ZM235.886 9.944C238.51 9.944 240.334 11.256 240.334 13.24C240.334 15.224 238.51 16.536 235.886 16.536C233.294 16.536 231.47 15.224 231.47 13.24C231.47 11.256 233.294 9.944 235.886 9.944ZM234.574 0.567999V5.272H237.23V0.567999H234.574Z" fill="white"/>
<path d="M16.1245 15.032V14.032H15.1245V15.032H16.1245ZM16.1245 20.088H15.1245V21.088H16.1245V20.088ZM18.7805 20.088V21.088H19.7805V20.088H18.7805ZM18.7805 15.032H19.7805V14.032H18.7805V15.032ZM4.3805 14.104V13.104H3.3805V14.104H4.3805ZM4.3805 16.248H3.3805V17.248H4.3805V16.248ZM30.5245 16.248V17.248H31.5245V16.248H30.5245ZM30.5245 14.104H31.5245V13.104H30.5245V14.104ZM15.7405 2.936V1.936H14.7405V2.936H15.7405ZM5.8525 10.232L5.74814 9.23746L4.36782 9.38231L4.94213 10.6458L5.8525 10.232ZM6.8125 12.344L5.90213 12.7578L6.20592 13.4261L6.93458 13.3365L6.8125 12.344ZM18.1085 2.936H19.1085V1.936H18.1085V2.936ZM16.8605 2.936V1.936H15.8605V2.936H16.8605ZM28.1245 12.344L28.0024 13.3365L28.7311 13.4261L29.0349 12.7578L28.1245 12.344ZM29.0845 10.232L29.9949 10.6458L30.5692 9.38231L29.1889 9.23746L29.0845 10.232ZM19.1965 2.936H20.1965V1.936H19.1965V2.936ZM6.7805 1.88V0.879999H5.7805V1.88H6.7805ZM6.7805 4.024H5.7805V5.024H6.7805V4.024ZM28.1885 4.024V5.024H29.1885V4.024H28.1885ZM28.1885 1.88H29.1885V0.879999H28.1885V1.88ZM15.1245 15.032V20.088H17.1245V15.032H15.1245ZM16.1245 21.088H18.7805V19.088H16.1245V21.088ZM19.7805 20.088V15.032H17.7805V20.088H19.7805ZM18.7805 14.032H16.1245V16.032H18.7805V14.032ZM3.3805 14.104V16.248H5.3805V14.104H3.3805ZM4.3805 17.248H30.5245V15.248H4.3805V17.248ZM31.5245 16.248V14.104H29.5245V16.248H31.5245ZM30.5245 13.104H4.3805V15.104H30.5245V13.104ZM17.4365 18.288C14.259 18.288 11.5997 18.751 9.69627 19.7161C7.75048 20.7027 6.5165 22.2721 6.5165 24.376H8.5165C8.5165 23.2159 9.13853 22.2413 10.6007 21.4999C12.1053 20.737 14.406 20.288 17.4365 20.288V18.288ZM6.5165 24.376C6.5165 26.4681 7.75514 28.0282 9.69794 29.0087C11.6004 29.9689 14.2588 30.432 17.4365 30.432V28.432C14.4062 28.432 12.1046 27.9831 10.5991 27.2233C9.13387 26.4838 8.5165 25.5159 8.5165 24.376H6.5165ZM17.4365 30.432C20.6142 30.432 23.2726 29.9689 25.1751 29.0087C27.1179 28.0282 28.3565 26.4681 28.3565 24.376H26.3565C26.3565 25.5159 25.7391 26.4838 24.2739 27.2233C22.7684 27.9831 20.4668 28.432 17.4365 28.432V30.432ZM28.3565 24.376C28.3565 22.2721 27.1225 20.7027 25.1767 19.7161C23.2733 18.751 20.614 18.288 17.4365 18.288V20.288C20.467 20.288 22.7677 20.737 24.2723 21.4999C25.7345 22.2413 26.3565 23.2159 26.3565 24.376H28.3565ZM17.4365 22.336C19.6523 22.336 21.3085 22.6046 22.3723 23.0473C23.434 23.489 23.6685 23.9795 23.6685 24.376H25.6685C25.6685 22.8205 24.559 21.791 23.1407 21.2007C21.7245 20.6114 19.7647 20.336 17.4365 20.336V22.336ZM23.6685 24.376C23.6685 24.7493 23.4435 25.2344 22.3749 25.6757C21.3095 26.1156 19.6519 26.384 17.4365 26.384V28.384C19.7651 28.384 21.7235 28.1084 23.1382 27.5243C24.5495 26.9416 25.6685 25.9227 25.6685 24.376H23.6685ZM17.4365 26.384C15.2381 26.384 13.5795 26.1158 12.5091 25.6753C11.4312 25.2316 11.2045 24.7446 11.2045 24.376H9.2045C9.2045 25.9274 10.3378 26.9444 11.7479 27.5247C13.1655 28.1082 15.1229 28.384 17.4365 28.384V26.384ZM11.2045 24.376C11.2045 23.9842 11.4407 23.4919 12.5116 23.0477C13.5805 22.6043 15.2377 22.336 17.4365 22.336V20.336C15.1233 20.336 13.1645 20.6117 11.7454 21.2003C10.3283 21.7881 9.2045 22.8158 9.2045 24.376H11.2045ZM14.7405 2.936V3.8H16.7405V2.936H14.7405ZM14.7405 3.8C14.7405 4.93593 13.9194 6.14317 12.2145 7.1975C10.543 8.23124 8.22213 8.97784 5.74814 9.23746L5.95687 11.2265C8.66687 10.9422 11.2901 10.1208 13.2665 8.8985C15.2096 7.69683 16.7405 5.96006 16.7405 3.8H14.7405ZM4.94213 10.6458L5.90213 12.7578L7.72287 11.9302L6.76287 9.8182L4.94213 10.6458ZM6.93458 13.3365C10.0465 12.9538 13.0378 11.9427 15.2798 10.366C17.5274 8.78529 19.1085 6.56226 19.1085 3.8H17.1085C17.1085 5.70974 16.0336 7.39071 14.1292 8.73003C12.2192 10.0733 9.56248 10.9982 6.69042 11.3515L6.93458 13.3365ZM19.1085 3.8V2.936H17.1085V3.8H19.1085ZM18.1085 1.936H15.7405V3.936H18.1085V1.936ZM15.8605 2.936V3.8H17.8605V2.936H15.8605ZM15.8605 3.8C15.8605 6.5598 17.431 8.78295 19.6718 10.3649C21.9063 11.9425 24.8902 12.9537 28.0024 13.3365L28.2466 11.3515C25.3748 10.9983 22.7267 10.0735 20.8252 8.73107C18.93 7.39305 17.8605 5.7122 17.8605 3.8H15.8605ZM29.0349 12.7578L29.9949 10.6458L28.1741 9.8182L27.2141 11.9302L29.0349 12.7578ZM29.1889 9.23746C26.7149 8.97784 24.3941 8.23124 22.7225 7.1975C21.0176 6.14317 20.1965 4.93593 20.1965 3.8H18.1965C18.1965 5.96006 19.7274 7.69683 21.6705 8.8985C23.647 10.1208 26.2701 10.9422 28.9801 11.2265L29.1889 9.23746ZM20.1965 3.8V2.936H18.1965V3.8H20.1965ZM19.1965 1.936H16.8605V3.936H19.1965V1.936ZM5.7805 1.88V4.024H7.7805V1.88H5.7805ZM6.7805 5.024H28.1885V3.024H6.7805V5.024ZM29.1885 4.024V1.88H27.1885V4.024H29.1885ZM28.1885 0.879999H6.7805V2.88H28.1885V0.879999ZM36.602 3.448V2.448H35.602V3.448H36.602ZM36.602 5.656H35.602V6.656H36.602V5.656ZM55.226 5.656V6.656H56.226V5.656H55.226ZM55.226 3.448H56.226V2.448H55.226V3.448ZM33.85 23.256V22.256H32.85V23.256H33.85ZM33.85 25.464H32.85V26.464H33.85V25.464ZM59.994 25.464V26.464H60.994V25.464H59.994ZM59.994 23.256H60.994V22.256H59.994V23.256ZM43.994 12.92V11.92H42.994V12.92H43.994ZM43.994 24.344H42.994V25.344H43.994V24.344ZM46.65 24.344V25.344H47.65V24.344H46.65ZM46.65 12.92H47.65V11.92H46.65V12.92ZM54.234 3.448V2.448H53.234V3.448H54.234ZM53.146 19.384L52.1648 19.1912L51.9595 20.2355L53.0146 20.3753L53.146 19.384ZM55.802 19.736L55.6706 20.7273L56.6168 20.8527L56.7861 19.9135L55.802 19.736ZM56.858 3.448H57.858V2.448H56.858V3.448ZM35.602 3.448V5.656H37.602V3.448H35.602ZM36.602 6.656H55.226V4.656H36.602V6.656ZM56.226 5.656V3.448H54.226V5.656H56.226ZM55.226 2.448H36.602V4.448H55.226V2.448ZM32.85 23.256V25.464H34.85V23.256H32.85ZM33.85 26.464H59.994V24.464H33.85V26.464ZM60.994 25.464V23.256H58.994V25.464H60.994ZM59.994 22.256H33.85V24.256H59.994V22.256ZM42.994 12.92V24.344H44.994V12.92H42.994ZM43.994 25.344H46.65V23.344H43.994V25.344ZM47.65 24.344V12.92H45.65V24.344H47.65ZM46.65 11.92H43.994V13.92H46.65V11.92ZM53.234 3.448V6.328H55.234V3.448H53.234ZM53.234 6.328C53.234 9.77197 53.2331 13.7552 52.1648 19.1912L54.1272 19.5768C55.2349 13.9408 55.234 9.79603 55.234 6.328H53.234ZM53.0146 20.3753L55.6706 20.7273L55.9334 18.7447L53.2774 18.3927L53.0146 20.3753ZM56.7861 19.9135C57.8584 13.9673 57.858 9.92727 57.858 6.328H55.858C55.858 9.89672 55.8576 13.7927 54.8179 19.5585L56.7861 19.9135ZM57.858 6.328V3.448H55.858V6.328H57.858ZM56.858 2.448H54.234V4.448H56.858V2.448ZM84.4075 0.567999V-0.432001H83.4075V0.567999H84.4075ZM84.4075 29.496H83.4075V30.496H84.4075V29.496ZM87.0635 29.496V30.496H88.0635V29.496H87.0635ZM87.0635 0.567999H88.0635V-0.432001H87.0635V0.567999ZM77.6555 12.152V11.152H76.6555V12.152H77.6555ZM77.6555 14.36H76.6555V15.36H77.6555V14.36ZM85.5915 14.36V15.36H86.5915V14.36H85.5915ZM85.5915 12.152H86.5915V11.152H85.5915V12.152ZM75.1275 3.672V2.672H74.1275V3.672H75.1275ZM63.2555 21.944L62.8151 21.0462L61.761 21.5632L62.4392 22.5217L63.2555 21.944ZM64.7275 24.024L63.9112 24.6017L64.407 25.3023L65.1747 24.9184L64.7275 24.024ZM77.7515 3.672H78.7515V2.672H77.7515V3.672ZM64.5035 3.672V2.672H63.5035V3.672H64.5035ZM64.5035 5.848H63.5035V6.848H64.5035V5.848ZM76.5355 5.848V6.848H77.5355V5.848H76.5355ZM76.5355 3.672H77.5355V2.672H76.5355V3.672ZM83.4075 0.567999V29.496H85.4075V0.567999H83.4075ZM84.4075 30.496H87.0635V28.496H84.4075V30.496ZM88.0635 29.496V0.567999H86.0635V29.496H88.0635ZM87.0635 -0.432001H84.4075V1.568H87.0635V-0.432001ZM76.6555 12.152V14.36H78.6555V12.152H76.6555ZM77.6555 15.36H85.5915V13.36H77.6555V15.36ZM86.5915 14.36V12.152H84.5915V14.36H86.5915ZM85.5915 11.152H77.6555V13.152H85.5915V11.152ZM74.1275 3.672V4.12H76.1275V3.672H74.1275ZM74.1275 4.12C74.1275 7.73835 73.3016 10.968 71.505 13.7772C69.7069 16.5889 66.894 19.0455 62.8151 21.0462L63.6959 22.8418C68.033 20.7145 71.1561 18.0351 73.19 14.8548C75.2254 11.672 76.1275 8.05365 76.1275 4.12H74.1275ZM62.4392 22.5217L63.9112 24.6017L65.5438 23.4463L64.0718 21.3663L62.4392 22.5217ZM65.1747 24.9184C70.1185 22.4466 73.5304 19.3004 75.6989 15.6553C77.8656 12.0133 78.7515 7.93963 78.7515 3.672H76.7515C76.7515 7.66037 75.9254 11.3627 73.9801 14.6327C72.0366 17.8996 68.9365 20.8014 64.2803 23.1296L65.1747 24.9184ZM77.7515 2.672H75.1275V4.672H77.7515V2.672ZM63.5035 3.672V5.848H65.5035V3.672H63.5035ZM64.5035 6.848H76.5355V4.848H64.5035V6.848ZM77.5355 5.848V3.672H75.5355V5.848H77.5355ZM76.5355 2.672H64.5035V4.672H76.5355V2.672ZM93.653 20.376V19.376H92.653V20.376H93.653ZM93.653 22.584H92.653V23.584H93.653V22.584ZM106.421 21.784L106.594 22.7689L107.51 22.6078L107.416 21.6831L106.421 21.784ZM106.197 19.576L107.192 19.4751L107.084 18.4087L106.027 18.5905L106.197 19.576ZM93.589 3.704V2.704H92.589V3.704H93.589ZM93.589 5.88H92.589V6.88H93.589V5.88ZM101.845 5.88H102.845V4.88H101.845V5.88ZM101.845 11.704V12.704H102.845V11.704H101.845ZM93.653 11.704V10.704H92.653V11.704H93.653ZM93.653 21.208H92.653V22.208H93.653V21.208ZM96.245 21.208V22.208H97.245V21.208H96.245ZM96.245 13.88V12.88H95.245V13.88H96.245ZM104.437 13.88V14.88H105.437V13.88H104.437ZM104.437 3.704H105.437V2.704H104.437V3.704ZM114.709 0.567999V-0.432001H113.709V0.567999H114.709ZM114.709 29.496H113.709V30.496H114.709V29.496ZM117.269 29.496V30.496H118.269V29.496H117.269ZM117.269 0.567999H118.269V-0.432001H117.269V0.567999ZM109.813 11.992V10.992H108.813V11.992H109.813ZM109.813 14.168H108.813V15.168H109.813V14.168ZM115.381 14.168V15.168H116.381V14.168H115.381ZM115.381 11.992H116.381V10.992H115.381V11.992ZM108.149 1.208V0.207998H107.149V1.208H108.149ZM108.149 28.024H107.149V29.024H108.149V28.024ZM110.645 28.024V29.024H111.645V28.024H110.645ZM110.645 1.208H111.645V0.207998H110.645V1.208ZM92.653 20.376V22.584H94.653V20.376H92.653ZM93.653 23.584H95.573V21.584H93.653V23.584ZM95.573 23.584C99.1791 23.584 102.51 23.4877 106.594 22.7689L106.248 20.7991C102.332 21.4883 99.1349 21.584 95.573 21.584V23.584ZM107.416 21.6831L107.192 19.4751L105.202 19.6769L105.426 21.8849L107.416 21.6831ZM106.027 18.5905C102.201 19.2492 99.0631 19.376 95.573 19.376V21.376C99.1229 21.376 102.385 21.2468 106.367 20.5615L106.027 18.5905ZM95.573 19.376H93.653V21.376H95.573V19.376ZM92.589 3.704V5.88H94.589V3.704H92.589ZM93.589 6.88H101.845V4.88H93.589V6.88ZM100.845 5.88V11.704H102.845V5.88H100.845ZM101.845 10.704H93.653V12.704H101.845V10.704ZM92.653 11.704V21.208H94.653V11.704H92.653ZM93.653 22.208H96.245V20.208H93.653V22.208ZM97.245 21.208V13.88H95.245V21.208H97.245ZM96.245 14.88H104.437V12.88H96.245V14.88ZM105.437 13.88V3.704H103.437V13.88H105.437ZM104.437 2.704H93.589V4.704H104.437V2.704ZM113.709 0.567999V29.496H115.709V0.567999H113.709ZM114.709 30.496H117.269V28.496H114.709V30.496ZM118.269 29.496V0.567999H116.269V29.496H118.269ZM117.269 -0.432001H114.709V1.568H117.269V-0.432001ZM108.813 11.992V14.168H110.813V11.992H108.813ZM109.813 15.168H115.381V13.168H109.813V15.168ZM116.381 14.168V11.992H114.381V14.168H116.381ZM115.381 10.992H109.813V12.992H115.381V10.992ZM107.149 1.208V28.024H109.149V1.208H107.149ZM108.149 29.024H110.645V27.024H108.149V29.024ZM111.645 28.024V1.208H109.645V28.024H111.645ZM110.645 0.207998H108.149V2.208H110.645V0.207998ZM137.716 3.064V2.064H136.716V3.064H137.716ZM129.94 21.304L129.509 20.4016L128.408 20.9276L129.14 21.904L129.94 21.304ZM131.572 23.48L130.772 24.08L131.275 24.7513L132.024 24.372L131.572 23.48ZM139.892 3.064H140.892V2.064H139.892V3.064ZM138.164 3.064V2.064H137.164V3.064H138.164ZM146.484 22.936L146.044 23.8341L146.784 24.1963L147.281 23.5399L146.484 22.936ZM148.084 20.824L148.881 21.4279L149.631 20.4379L148.504 19.9164L148.084 20.824ZM140.34 3.064H141.34V2.064H140.34V3.064ZM151.092 0.535999V-0.464001H150.092V0.535999H151.092ZM151.092 29.528H150.092V30.528H151.092V29.528ZM153.748 29.528V30.528H154.748V29.528H153.748ZM153.748 0.535999H154.748V-0.464001H153.748V0.535999ZM136.716 3.064V8.248H138.716V3.064H136.716ZM136.716 8.248C136.716 13.3633 133.424 18.5317 129.509 20.4016L130.371 22.2064C135.032 19.9803 138.716 14.0767 138.716 8.248H136.716ZM129.14 21.904L130.772 24.08L132.372 22.88L130.74 20.704L129.14 21.904ZM132.024 24.372C137.155 21.7721 140.892 15.2105 140.892 8.248H138.892C138.892 14.5975 135.461 20.3879 131.12 22.588L132.024 24.372ZM140.892 8.248V3.064H138.892V8.248H140.892ZM139.892 2.064H137.716V4.064H139.892V2.064ZM137.164 3.064V8.248H139.164V3.064H137.164ZM137.164 8.248C137.164 15.0079 140.952 21.3397 146.044 23.8341L146.924 22.0379C142.609 19.9243 139.164 14.3521 139.164 8.248H137.164ZM147.281 23.5399L148.881 21.4279L147.287 20.2201L145.687 22.3321L147.281 23.5399ZM148.504 19.9164C144.583 18.1022 141.34 13.1531 141.34 8.248H139.34C139.34 13.9029 143.009 19.5778 147.664 21.7316L148.504 19.9164ZM141.34 8.248V3.064H139.34V8.248H141.34ZM140.34 2.064H138.164V4.064H140.34V2.064ZM150.092 0.535999V29.528H152.092V0.535999H150.092ZM151.092 30.528H153.748V28.528H151.092V30.528ZM154.748 29.528V0.535999H152.748V29.528H154.748ZM153.748 -0.464001H151.092V1.536H153.748V-0.464001ZM170.93 10.904V9.904H169.93V10.904H170.93ZM170.93 13.112H169.93V14.112H170.93V13.112ZM176.465 13.112V14.112H177.465V13.112H176.465ZM176.465 10.904H177.465V9.904H176.465V10.904ZM165.521 3.288V2.288H164.521V3.288H165.521ZM159.186 21.272L158.678 20.4102L157.668 21.0048L158.414 21.9086L159.186 21.272ZM160.85 23.288L160.078 23.9246L160.632 24.595L161.373 24.1403L160.85 23.288ZM167.602 3.288H168.602V2.288H167.602V3.288ZM166.034 3.288V2.288H165.034V3.288H166.034ZM172.529 22.648L172.005 23.4997L172.788 23.9813L173.334 23.242L172.529 22.648ZM174.066 20.568L174.87 21.162L175.521 20.28L174.583 19.7124L174.066 20.568ZM168.081 3.288H169.081V2.288H168.081V3.288ZM181.553 0.567999V-0.432001H180.553V0.567999H181.553ZM181.553 29.496H180.553V30.496H181.553V29.496ZM184.113 29.496V30.496H185.113V29.496H184.113ZM184.113 0.567999H185.113V-0.432001H184.113V0.567999ZM175.697 1.176V0.175999H174.697V1.176H175.697ZM175.697 28.056H174.697V29.056H175.697V28.056ZM178.193 28.056V29.056H179.193V28.056H178.193ZM178.193 1.176H179.193V0.175999H178.193V1.176ZM169.93 10.904V13.112H171.93V10.904H169.93ZM170.93 14.112H176.465V12.112H170.93V14.112ZM177.465 13.112V10.904H175.465V13.112H177.465ZM176.465 9.904H170.93V11.904H176.465V9.904ZM164.521 3.288V8.792H166.521V3.288H164.521ZM164.521 8.792C164.521 13.4973 162.264 18.2993 158.678 20.4102L159.693 22.1338C164.043 19.5727 166.521 14.0067 166.521 8.792H164.521ZM158.414 21.9086L160.078 23.9246L161.621 22.6514L159.957 20.6354L158.414 21.9086ZM161.373 24.1403C165.992 21.3055 168.602 15.0527 168.602 8.792H166.602C166.602 14.6273 164.155 20.0865 160.326 22.4357L161.373 24.1403ZM168.602 8.792V3.288H166.602V8.792H168.602ZM167.602 2.288H165.521V4.288H167.602V2.288ZM165.034 3.288V8.696H167.034V3.288H165.034ZM165.034 8.696C165.034 14.5299 167.444 20.6926 172.005 23.4997L173.054 21.7963C169.295 19.4834 167.034 14.1261 167.034 8.696H165.034ZM173.334 23.242L174.87 21.162L173.261 19.974L171.725 22.054L173.334 23.242ZM174.583 19.7124C171.15 17.6354 169.081 13.0847 169.081 8.696H167.081C167.081 13.5873 169.365 18.8926 173.548 21.4236L174.583 19.7124ZM169.081 8.696V3.288H167.081V8.696H169.081ZM168.081 2.288H166.034V4.288H168.081V2.288ZM180.553 0.567999V29.496H182.553V0.567999H180.553ZM181.553 30.496H184.113V28.496H181.553V30.496ZM185.113 29.496V0.567999H183.113V29.496H185.113ZM184.113 -0.432001H181.553V1.568H184.113V-0.432001ZM174.697 1.176V28.056H176.697V1.176H174.697ZM175.697 29.056H178.193V27.056H175.697V29.056ZM179.193 28.056V1.176H177.193V28.056H179.193ZM178.193 0.175999H175.697V2.176H178.193V0.175999ZM196.913 23.576V22.576H195.913V23.576H196.913ZM196.913 25.784H195.913V26.784H196.913V25.784ZM223.12 25.784V26.784H224.12V25.784H223.12ZM223.12 23.576H224.12V22.576H223.12V23.576ZM208.689 16.568V15.568H207.689V16.568H208.689ZM208.689 24.312H207.689V25.312H208.689V24.312ZM211.312 24.312V25.312H212.312V24.312H211.312ZM211.312 16.568H212.312V15.568H211.312V16.568ZM208.624 4.216V3.216H207.624V4.216H208.624ZM198.161 15.48L197.996 14.4936L196.644 14.719L197.272 15.938L198.161 15.48ZM199.249 17.592L198.36 18.05L198.708 18.7258L199.452 18.5711L199.249 17.592ZM210.865 4.216H211.865V3.216H210.865V4.216ZM209.105 4.216V3.216H208.105V4.216H209.105ZM220.848 17.496L220.653 18.4768L221.402 18.6256L221.743 17.9432L220.848 17.496ZM221.904 15.384L222.799 15.8312L223.406 14.6176L222.067 14.3973L221.904 15.384ZM211.344 4.216H212.344V3.216H211.344V4.216ZM199.057 3.192V2.192H198.057V3.192H199.057ZM199.057 5.368H198.057V6.368H199.057V5.368ZM220.913 5.368V6.368H221.913V5.368H220.913ZM220.913 3.192H221.913V2.192H220.913V3.192ZM195.913 23.576V25.784H197.913V23.576H195.913ZM196.913 26.784H223.12V24.784H196.913V26.784ZM224.12 25.784V23.576H222.12V25.784H224.12ZM223.12 22.576H196.913V24.576H223.12V22.576ZM207.689 16.568V24.312H209.689V16.568H207.689ZM208.689 25.312H211.312V23.312H208.689V25.312ZM212.312 24.312V16.568H210.312V24.312H212.312ZM211.312 15.568H208.689V17.568H211.312V15.568ZM207.624 4.216V6.008H209.624V4.216H207.624ZM207.624 6.008C207.624 7.88988 206.489 9.79626 204.617 11.3858C202.759 12.9641 200.309 14.1082 197.996 14.4936L198.325 16.4664C201.004 16.0198 203.786 14.7159 205.912 12.9102C208.024 11.1157 209.624 8.70212 209.624 6.008H207.624ZM197.272 15.938L198.36 18.05L200.137 17.134L199.049 15.022L197.272 15.938ZM199.452 18.5711C202.464 17.945 205.534 16.4513 207.868 14.3134C210.205 12.1728 211.865 9.32272 211.865 6.008H209.865C209.865 8.61327 208.564 10.9632 206.517 12.8386C204.467 14.7167 201.729 16.055 199.045 16.6129L199.452 18.5711ZM211.865 6.008V4.216H209.865V6.008H211.865ZM210.865 3.216H208.624V5.216H210.865V3.216ZM208.105 4.216V6.008H210.105V4.216H208.105ZM208.105 6.008C208.105 9.32643 209.776 12.1625 212.136 14.2838C214.493 16.4018 217.596 17.8688 220.653 18.4768L221.044 16.5152C218.309 15.9712 215.54 14.6542 213.473 12.7962C211.409 10.9415 210.105 8.60957 210.105 6.008H208.105ZM221.743 17.9432L222.799 15.8312L221.01 14.9368L219.954 17.0488L221.743 17.9432ZM222.067 14.3973C219.715 14.0102 217.239 12.8855 215.367 11.3308C213.482 9.76489 212.344 7.88417 212.344 6.008H210.344C210.344 8.70783 211.959 11.0991 214.09 12.8692C216.234 14.6505 219.038 15.9258 221.742 16.3707L222.067 14.3973ZM212.344 6.008V4.216H210.344V6.008H212.344ZM211.344 3.216H209.105V5.216H211.344V3.216ZM198.057 3.192V5.368H200.057V3.192H198.057ZM199.057 6.368H220.913V4.368H199.057V6.368ZM221.913 5.368V3.192H219.913V5.368H221.913ZM220.913 2.192H199.057V4.192H220.913V2.192ZM234.574 17.912V16.912H233.574V17.912H234.574ZM234.574 22.68H233.574V23.68H234.574V22.68ZM237.262 22.68V23.68H238.262V22.68H237.262ZM237.262 17.912H238.262V16.912H237.262V17.912ZM247.246 0.567999V-0.432001H246.246V0.567999H247.246ZM247.246 29.496H246.246V30.496H247.246V29.496ZM249.902 29.496V30.496H250.902V29.496H249.902ZM249.902 0.567999H250.902V-0.432001H249.902V0.567999ZM226.862 23.992L225.874 24.1494L226.009 24.992H226.862V23.992ZM245.614 22.84L245.781 23.826L246.701 23.6704L246.609 22.7421L245.614 22.84ZM245.422 20.888L246.417 20.7901L246.316 19.7652L245.295 19.8961L245.422 20.888ZM226.51 21.784L226.504 20.784L225.339 20.7908L225.522 21.9414L226.51 21.784ZM227.118 4.088V3.088H226.118V4.088H227.118ZM227.118 6.232H226.118V7.232H227.118V6.232ZM244.686 6.232V7.232H245.686V6.232H244.686ZM244.686 4.088H245.686V3.088H244.686V4.088ZM234.574 0.567999V-0.432001H233.574V0.567999H234.574ZM234.574 5.272H233.574V6.272H234.574V5.272ZM237.23 5.272V6.272H238.23V5.272H237.23ZM237.23 0.567999H238.23V-0.432001H237.23V0.567999ZM233.574 17.912V22.68H235.574V17.912H233.574ZM234.574 23.68H237.262V21.68H234.574V23.68ZM238.262 22.68V17.912H236.262V22.68H238.262ZM237.262 16.912H234.574V18.912H237.262V16.912ZM246.246 0.567999V29.496H248.246V0.567999H246.246ZM247.246 30.496H249.902V28.496H247.246V30.496ZM250.902 29.496V0.567999H248.902V29.496H250.902ZM249.902 -0.432001H247.246V1.568H249.902V-0.432001ZM226.862 24.992C232.202 24.992 239.256 24.9297 245.781 23.826L245.447 21.854C239.108 22.9263 232.21 22.992 226.862 22.992V24.992ZM246.609 22.7421L246.417 20.7901L244.427 20.9859L244.619 22.9379L246.609 22.7421ZM245.295 19.8961C239.125 20.6871 231.985 20.752 226.504 20.784L226.516 22.784C231.979 22.752 239.239 22.6889 245.549 21.8799L245.295 19.8961ZM225.522 21.9414L225.874 24.1494L227.85 23.8346L227.498 21.6266L225.522 21.9414ZM226.118 4.088V6.232H228.118V4.088H226.118ZM227.118 7.232H244.686V5.232H227.118V7.232ZM245.686 6.232V4.088H243.686V6.232H245.686ZM244.686 3.088H227.118V5.088H244.686V3.088ZM235.886 6.896C233.662 6.896 231.695 7.46401 230.259 8.56135C228.8 9.676 227.942 11.3018 227.942 13.24H229.942C229.942 11.9462 230.492 10.9 231.473 10.1507C232.477 9.38399 233.982 8.896 235.886 8.896V6.896ZM227.942 13.24C227.942 15.1921 228.798 16.8195 230.261 17.9319C231.698 19.0256 233.666 19.584 235.886 19.584V17.584C233.978 17.584 232.474 17.1024 231.471 16.3401C230.494 15.5965 229.942 14.5519 229.942 13.24H227.942ZM235.886 19.584C238.121 19.584 240.096 19.0264 241.538 17.9329C243.005 16.8204 243.862 15.1924 243.862 13.24H241.862C241.862 14.5516 241.311 15.5956 240.33 16.3391C239.324 17.1016 237.811 17.584 235.886 17.584V19.584ZM243.862 13.24C243.862 11.3015 243.004 9.67516 241.54 8.56039C240.099 7.46325 238.124 6.896 235.886 6.896V8.896C237.808 8.896 239.321 9.38475 240.328 10.1516C241.312 10.9008 241.862 11.9465 241.862 13.24H243.862ZM235.886 10.944C237.043 10.944 237.931 11.2345 238.502 11.6539C239.05 12.0565 239.334 12.5908 239.334 13.24H241.334C241.334 11.9052 240.706 10.7915 239.686 10.0421C238.689 9.30954 237.353 8.944 235.886 8.944V10.944ZM239.334 13.24C239.334 13.8892 239.05 14.4235 238.502 14.8261C237.931 15.2455 237.043 15.536 235.886 15.536V17.536C237.353 17.536 238.689 17.1705 239.686 16.4379C240.706 15.6885 241.334 14.5748 241.334 13.24H239.334ZM235.886 15.536C234.747 15.536 233.868 15.2467 233.3 14.8276C232.755 14.4248 232.47 13.8897 232.47 13.24H230.47C230.47 14.5743 231.097 15.6872 232.112 16.4364C233.104 17.1693 234.433 17.536 235.886 17.536V15.536ZM232.47 13.24C232.47 12.5903 232.755 12.0552 233.3 11.6524C233.868 11.2333 234.747 10.944 235.886 10.944V8.944C234.433 8.944 233.104 9.31068 232.112 10.0436C231.097 10.7928 230.47 11.9057 230.47 13.24H232.47ZM233.574 0.567999V5.272H235.574V0.567999H233.574ZM234.574 6.272H237.23V4.272H234.574V6.272ZM238.23 5.272V0.567999H236.23V5.272H238.23ZM237.23 -0.432001H234.574V1.568H237.23V-0.432001Z" fill="#857C6F"/>
</g>
<defs>
<filter id="filter0_d_52_4" x="0.380493" y="0.536011" width="253.521" height="36.992" filterUnits="userSpaceOnUse" color-interpolation-filters="sRGB">
<feFlood flood-opacity="0" result="BackgroundImageFix"/>
<feColorMatrix in="SourceAlpha" type="matrix" values="0 0 0 0 0 0 0 0 0 0 0 0 0 0 0 0 0 0 127 0" result="hardAlpha"/>
<feOffset dy="4"/>
<feGaussianBlur stdDeviation="2"/>
<feComposite in2="hardAlpha" operator="out"/>
<feColorMatrix type="matrix" values="0 0 0 0 0 0 0 0 0 0 0 0 0 0 0 0 0 0 0.25 0"/>
<feBlend mode="normal" in2="BackgroundImageFix" result="effect1_dropShadow_52_4"/>
<feBlend mode="normal" in="SourceGraphic" in2="effect1_dropShadow_52_4" result="shape"/>
</filter>
</defs>
</svg>
