<svg width="30" height="30" viewBox="0 0 30 30" fill="none" xmlns="http://www.w3.org/2000/svg">
<path d="M11.1516 0.0499922C10.1256 0.204982 9.31291 0.548473 8.51668 1.16005C8.24169 1.3695 8.12266 1.42814 7.6794 1.57476C6.25521 2.03973 5.15526 2.67644 3.97323 3.72367C1.95392 5.50396 0.685694 8.06338 0.213701 11.3098C-0.0489732 13.1194 -0.0694947 15.394 0.152137 17.6267C0.295787 19.0132 0.665173 21.3548 0.878596 22.1716C1.10433 23.0513 1.51476 23.7634 2.18376 24.4546C3.1811 25.4851 4.41239 26.0925 5.91045 26.2977C6.26753 26.348 7.16226 26.3354 7.56038 26.2726C7.69171 26.2516 7.72865 26.2726 8.05289 26.57C10.0394 28.388 12.5389 29.5735 15.1328 29.9253C15.7854 30.0133 17.226 30.0259 17.8827 29.9505C21.5683 29.519 24.8764 27.3827 27.0311 24.0441C28.2091 22.2177 28.9848 20.1316 29.3172 17.878C29.3952 17.3628 29.4075 17.0863 29.4116 16.0349C29.4157 14.4389 29.3336 12.2272 29.2556 11.7203C28.9519 9.75152 28.2296 8.16811 26.986 6.76063C26.3744 6.06946 25.1185 5.0725 24.4988 4.79184C24.3839 4.74158 24.1376 4.56564 23.957 4.41065C21.5109 2.27849 18.2603 0.762108 14.9645 0.221738C13.7537 0.0248587 11.8822 -0.0631084 11.1516 0.0499922ZM8.95584 7.68638C8.95584 7.70733 8.99277 7.96285 9.03792 8.26026C9.08307 8.55768 9.12001 8.80482 9.12001 8.80901C9.12001 8.81739 9.24724 8.85928 9.4032 8.90955C9.63715 8.98076 9.73155 9.04359 9.9737 9.26979C10.2856 9.5672 10.5976 9.99866 10.5976 10.1411C10.5976 10.1872 10.577 10.2919 10.5483 10.3673C10.5073 10.4804 10.4785 10.5055 10.3841 10.5055C10.2897 10.5055 10.1953 10.4343 9.94907 10.1746C9.66588 9.88137 9.31291 9.58396 9.24724 9.58396C9.2062 9.58396 9.23082 10.9789 9.28007 11.1967C9.32112 11.381 9.44835 12.0596 9.44835 12.0847C9.44835 12.0931 9.60842 12.202 9.80953 12.3319C10.4334 12.7424 10.8725 13.2995 11.0613 13.9195C11.1393 14.1708 11.2542 14.8494 11.2542 15.0421C11.2501 15.2809 11.1065 15.7207 10.9546 15.9553C10.7371 16.2904 10.3513 16.5501 9.98191 16.6171C9.81774 16.6507 9.82184 16.6297 9.90393 17.2329C9.95318 17.589 9.94907 17.6392 9.87109 17.9031C9.80542 18.1293 9.76848 18.1964 9.70282 18.2047C9.55506 18.2299 9.27597 18.1252 9.15284 18.0037C9.05434 17.899 9.03792 17.8529 9.03792 17.6392C9.03792 17.5052 9.05434 17.3712 9.07486 17.3376C9.09949 17.2958 9.09128 17.2329 9.05023 17.1533C9.0174 17.0863 8.99688 16.9858 9.00919 16.9313C9.0215 16.8475 8.99688 16.8266 8.77525 16.7428C8.26632 16.5585 7.93797 16.3532 7.79022 16.1354C7.53986 15.7626 7.24435 15.2851 7.17868 15.1426C7.08428 14.9248 7.08838 14.6107 7.1951 14.4012C7.28129 14.2337 7.28129 14.2337 7.52344 14.2337H7.76149L7.85178 14.5353C7.9626 14.9248 8.21706 15.4652 8.37713 15.6663C8.51257 15.8296 8.84092 16.0139 8.93121 15.9804C8.97225 15.9637 8.97225 15.8841 8.93121 15.549C8.89838 15.2935 8.89427 15.1091 8.9189 15.0672C8.94352 15.0212 8.93531 14.9458 8.89838 14.8536C8.80808 14.6316 8.7342 14.1122 8.78346 14.0535C8.84092 13.9865 8.77525 13.4252 8.66443 13.0524C8.57003 12.7173 8.40586 12.5162 8.22527 12.5162C7.9667 12.5162 7.70813 12.3445 7.46187 12.0093C7.1992 11.6533 7.1048 11.3182 7.12122 10.8071C7.13353 10.4301 7.14584 10.3757 7.2977 10.0406C7.4906 9.63004 7.91335 9.13575 8.18012 9.01008L8.33609 8.93468L8.34019 8.3608C8.34019 8.00893 8.35661 7.77854 8.38534 7.76178C8.42638 7.73246 8.74241 7.67382 8.88606 7.66125C8.923 7.66125 8.95584 7.66963 8.95584 7.68638ZM20.0702 7.78273C20.0785 7.87488 20.1646 8.39012 20.2262 8.71267C20.2467 8.8132 20.2837 8.83833 20.4807 8.89698C20.8213 8.99751 21.1415 9.24885 21.4411 9.65936C21.6832 9.99447 21.7325 10.1327 21.6709 10.338C21.6258 10.4846 21.6011 10.5055 21.4944 10.5055C21.3918 10.5055 21.3097 10.4427 21.043 10.1662C20.7228 9.83529 20.415 9.58396 20.3288 9.58396C20.3001 9.58396 20.3001 9.62166 20.3288 9.69706C20.3575 9.77246 20.3658 9.96934 20.3452 10.2332C20.3206 10.6396 20.3904 11.3601 20.4889 11.6994C20.5053 11.7664 20.534 11.8921 20.5463 11.9716C20.5669 12.1015 20.6079 12.1392 20.887 12.3068C21.7571 12.8262 22.2578 13.6849 22.3194 14.7656C22.3604 15.4652 22.2332 15.859 21.8515 16.2108C21.6504 16.3993 21.2318 16.6213 21.084 16.6213C21.0265 16.6213 20.9691 16.6507 20.9568 16.6842C20.9404 16.7219 20.9609 16.9187 21.0019 17.124C21.0758 17.5094 21.0717 17.6225 20.9691 17.9827C20.928 18.1377 20.8911 18.1964 20.8254 18.2047C20.6859 18.2257 20.4191 18.1335 20.2837 18.0162C20.1564 17.9073 20.1564 17.9073 20.1646 17.5261C20.1688 17.3167 20.1523 17.0863 20.1277 17.0109C20.099 16.9146 20.099 16.8727 20.1318 16.8601C20.1564 16.8517 20.0292 16.7931 19.8486 16.7302C19.4998 16.6046 19.2125 16.4496 19.0606 16.3114C19.0072 16.2611 18.8431 16.0475 18.6953 15.8338C18.2356 15.1594 18.0961 14.7196 18.2685 14.485C18.3136 14.418 18.3547 14.3342 18.3547 14.2965C18.3547 14.2462 18.408 14.2337 18.6173 14.2337H18.8759L18.9703 14.5562C19.1632 15.2306 19.4792 15.7459 19.7953 15.9092C20.0579 16.0475 20.0949 16.0307 20.0579 15.771C20.0415 15.6537 20.021 15.394 20.0128 15.1971C20.0046 15.0002 19.9635 14.6819 19.9184 14.485C19.8691 14.2672 19.8527 14.1122 19.8773 14.087C19.9758 13.9865 19.8404 13.1068 19.6762 12.7843C19.5859 12.6084 19.4874 12.5455 19.2125 12.4994C18.8431 12.4366 18.4203 11.9298 18.2726 11.3768C18.2069 11.1339 18.1946 11.0124 18.2233 10.9495C18.2438 10.8993 18.2479 10.8239 18.2315 10.7778C18.1453 10.5223 18.4819 9.75571 18.8636 9.35776C18.999 9.21534 19.1919 9.06035 19.2863 9.01427L19.4587 8.93468L19.4628 8.33985V7.74503L19.5983 7.72408C19.8979 7.67382 19.9389 7.66963 19.9964 7.67382C20.0292 7.678 20.062 7.72408 20.0702 7.78273ZM12.7605 20.3997C12.9329 20.5966 12.937 20.6217 12.8795 21.1873C12.8139 21.8072 13.1217 23.6378 13.3556 24.0273C13.4911 24.2535 13.5691 24.2703 13.803 24.1195C14.4022 23.7257 14.7347 22.9466 14.8332 21.7109C14.8742 21.1873 14.8783 21.1621 15.0015 21.0281C15.1164 20.9066 15.1533 20.894 15.3585 20.894C15.5473 20.894 15.6048 20.9108 15.6746 20.9862C15.8182 21.1496 15.8346 21.2166 15.8018 21.5726C15.7033 22.7874 15.8346 23.4786 16.2409 23.8933C16.4051 24.0608 16.4954 24.1195 16.6965 24.1739C16.832 24.2116 17.0002 24.2452 17.0741 24.2452C17.2629 24.2452 17.501 24.5049 17.4845 24.6976C17.4722 24.8274 17.4558 24.8442 17.1849 24.9405C16.7991 25.0829 16.6883 25.0997 16.3723 25.0494C15.8798 24.9698 15.4488 24.6934 15.1902 24.287C15.1164 24.1698 15.0466 24.0776 15.0343 24.0776C15.022 24.0818 14.9604 24.1614 14.8988 24.2577C14.7018 24.5719 14.3407 24.9447 14.119 25.0578C13.9425 25.15 13.8481 25.1667 13.565 25.1667C13.1586 25.1667 13.056 25.1206 12.8139 24.8442C12.5471 24.5342 12.3993 24.2116 12.2187 23.5749C11.9848 22.733 11.8904 21.4344 12.0135 20.8354C12.112 20.3495 12.149 20.3076 12.4363 20.3076C12.6333 20.3076 12.6907 20.3243 12.7605 20.3997Z" fill="#3B82F6"/>
<path d="M8.20063 9.98188C7.95438 10.25 7.8805 10.4092 7.85587 10.7108C7.83125 11.1003 7.90102 11.3852 8.0734 11.5653C8.29503 11.7957 8.65211 11.8795 8.5454 11.6784C8.50846 11.6072 8.43458 11.1757 8.35249 10.539C8.34018 10.4301 8.34429 10.3086 8.3607 10.2667C8.38122 10.2248 8.38943 10.1704 8.38122 10.1494C8.37712 10.1243 8.3566 10.0489 8.34429 9.98188L8.31556 9.85622L8.20063 9.98188Z" fill="#3B82F6"/>
<path d="M9.54266 13.2367C9.62474 13.7101 9.73966 14.6735 9.7725 15.1468C9.79302 15.4526 9.81765 15.7124 9.82996 15.7249C9.87921 15.7752 10.0762 15.6788 10.2076 15.5364C10.3512 15.3856 10.3553 15.3814 10.3266 15.1217C10.3102 14.9416 10.3143 14.8411 10.3512 14.7992C10.4866 14.6316 10.1829 13.8148 9.82585 13.3791C9.5796 13.0901 9.51393 13.0524 9.54266 13.2367Z" fill="#3B82F6"/>
<path d="M19.3109 9.96934C19.2657 10.0238 19.1754 10.1495 19.1097 10.25C18.9989 10.4259 18.9907 10.4636 18.9907 10.8616C18.9907 11.2553 18.9989 11.2972 19.1056 11.4648C19.2288 11.6533 19.5571 11.8543 19.6228 11.7789C19.6433 11.758 19.6269 11.5863 19.5817 11.3642C19.5161 11.0501 19.475 10.5767 19.4668 9.99029C19.4627 9.85205 19.4217 9.84786 19.3109 9.96934Z" fill="#3B82F6"/>
<path d="M20.6285 13.1739C20.6368 13.2158 20.6573 13.287 20.6696 13.3331C20.7147 13.5132 20.8666 14.8243 20.8953 15.26L20.9199 15.7207L21.0431 15.7082C21.1785 15.6914 21.474 15.4317 21.474 15.327C21.474 15.2935 21.4535 15.2013 21.4248 15.1259C21.3837 15.0086 21.3837 14.9625 21.4453 14.8494C21.6013 14.5562 21.314 13.798 20.8543 13.2912C20.6778 13.0943 20.5916 13.0524 20.6285 13.1739Z" fill="#3B82F6"/>
</svg>
